<?xml version="1.0" standalone="no"?><!DOCTYPE svg PUBLIC "-//W3C//DTD SVG 1.1//EN" "http://www.w3.org/Graphics/SVG/1.1/DTD/svg11.dtd"><svg t="1702560481271" class="icon" viewBox="0 0 1024 1024" version="1.1" xmlns="http://www.w3.org/2000/svg" p-id="9571" xmlns:xlink="http://www.w3.org/1999/xlink" width="200" height="200"><path d="M214.032 802.32c0 0-29.792 116.128-89.376 145.168 0 0 268.16-29.04 327.744-145.168L214.032 802.32zM869.568 80 154.448 80C105.072 80 64 115.504 64 163.584l0 580.656C64 792.336 105.072 832 154.448 832l715.12 0C918.928 832 960 792.336 960 744.24L960 163.584C960 115.504 918.928 80 869.568 80zM273.632 512c-32.912 0-59.6-26.016-59.6-58.096 0-32.064 26.672-58.064 59.6-58.064s59.6 26 59.6 58.064C333.232 485.984 306.544 512 273.632 512zM512 512c-32.912 0-59.6-26.016-59.6-58.096 0-32.064 26.672-58.064 59.6-58.064 32.944 0 59.616 26 59.616 58.064C571.616 485.984 544.944 512 512 512zM750.352 512c-32.912 0-59.6-26.016-59.6-58.096 0-32.064 26.688-58.064 59.6-58.064 32.944 0 59.6 26 59.6 58.064C809.952 485.984 783.296 512 750.352 512z" fill="#e6e6e6" p-id="9572"></path></svg>