<?xml version="1.0" standalone="no"?><!DOCTYPE svg PUBLIC "-//W3C//DTD SVG 1.1//EN" "http://www.w3.org/Graphics/SVG/1.1/DTD/svg11.dtd"><svg t="1702604706852" class="icon" viewBox="0 0 1024 1024" version="1.1" xmlns="http://www.w3.org/2000/svg" p-id="9775" xmlns:xlink="http://www.w3.org/1999/xlink" width="200" height="200"><path d="M512 16.839111v0.284445c281.6 0 512 187.875556 512 419.271111s-230.4 419.271111-512 419.271111a79.843556 79.843556 0 0 0-29.44 6.826666c-55.296 21.504-146.944 89.372444-211.2 140.231112a43.434667 43.434667 0 0 1-25.6 9.671111 44.828444 44.828444 0 0 1-31.829333-14.136889 46.990222 46.990222 0 0 1-12.714667-33.024c0-85.418667-4.864-197.603556-30.464-216.462222C65.792 671.971556 0 560.355556 0 436.138667 0 204.487111 230.4 16.867556 512 16.867556z m166.4 312.632889h-332.8c-21.219556 0-38.4 17.607111-38.4 39.310222 0 21.703111 17.180444 39.310222 38.4 39.310222h332.8c21.219556 0 38.4-17.607111 38.4-39.310222 0-21.703111-17.180444-39.310222-38.4-39.310222z m-51.2 183.466667h-230.4c-21.219556 0-38.4 17.578667-38.4 39.281777 0 21.731556 17.180444 39.310222 38.4 39.310223h230.4c21.219556 0 38.4-17.578667 38.4-39.310223 0-21.703111-17.180444-39.310222-38.4-39.310222z" fill="#000000" p-id="9776"></path></svg>