<?xml version="1.0" standalone="no"?><!DOCTYPE svg PUBLIC "-//W3C//DTD SVG 1.1//EN" "http://www.w3.org/Graphics/SVG/1.1/DTD/svg11.dtd"><svg t="1693448126665" class="icon" viewBox="0 0 1024 1024" version="1.1" xmlns="http://www.w3.org/2000/svg" p-id="6692" xmlns:xlink="http://www.w3.org/1999/xlink" width="200" height="200"><path d="M530.46 269c4.64 0 9.05 2.01 12.09 5.52l109.54 126.3A16.01 16.01 0 0 1 656 411.3V893c0 8.82-7.18 16-16 16H178c-8.82 0-16-7.18-16-16V285c0-8.82 7.18-16 16-16h352.46m0-64H178c-44.18 0-80 35.82-80 80v608c0 44.18 35.82 80 80 80h462c44.18 0 80-35.82 80-80V411.3c0-19.26-6.95-37.87-19.56-52.42L590.9 232.58A80.014 80.014 0 0 0 530.46 205z" p-id="6693"></path><path d="M819.29 864h-45.92c-17.67 0-32-14.33-32-32s14.33-32 32-32h45.92c25.21 0 45.71-19.94 45.71-44.46V295.17c0-10.61-3.91-20.88-11.01-28.94L747.58 145.52c-8.7-9.87-21.35-15.52-34.7-15.52H370.49c-17.67 0-32-14.33-32-32s14.33-32 32-32h342.38c31.72 0 61.87 13.56 82.71 37.2L902 223.91c17.41 19.75 27 45.06 27 71.26v460.37C929 815.35 879.78 864 819.29 864z" p-id="6694"></path><path d="M702 468H552.09c-41.96 0-76.09-31.47-76.09-70.15V240.5h64v157.35c0 1.88 4.57 6.15 12.09 6.15H702v64zM898 326H748.09c-41.96 0-76.09-31.47-76.09-70.15V98.5h64v157.35c0 1.88 4.57 6.15 12.09 6.15H898v64zM535.13 784.5H262.88c-17.67 0-32 14.33-32 32s14.33 32 32 32h272.25c17.67 0 32-14.33 32-32s-14.33-32-32-32zM535.13 638.75H262.88c-17.67 0-32 14.33-32 32s14.33 32 32 32h272.25c17.67 0 32-14.33 32-32s-14.33-32-32-32zM535.13 493H262.88c-17.67 0-32 14.33-32 32s14.33 32 32 32h272.25c17.67 0 32-14.33 32-32s-14.33-32-32-32z" p-id="6695"></path></svg>