<?xml version="1.0" standalone="no"?><!DOCTYPE svg PUBLIC "-//W3C//DTD SVG 1.1//EN" "http://www.w3.org/Graphics/SVG/1.1/DTD/svg11.dtd"><svg t="1702813797793" class="icon" viewBox="0 0 1024 1024" version="1.1" xmlns="http://www.w3.org/2000/svg" p-id="6367" xmlns:xlink="http://www.w3.org/1999/xlink" width="200" height="200"><path d="M573.99296 68.13696h-122.88a45.056 45.056 0 0 0-45.056 45.056v122.88a45.056 45.056 0 0 0 45.056 45.056h122.88a45.056 45.056 0 0 0 45.056-45.056v-122.88a45.056 45.056 0 0 0-45.056-45.056z m-4.096 49.152v114.688h-114.688v-114.688h114.688zM256.55296 375.33696h-122.88a45.056 45.056 0 0 0-45.056 45.056v122.88a45.056 45.056 0 0 0 45.056 45.056h122.88a45.056 45.056 0 0 0 45.056-45.056v-122.88a45.056 45.056 0 0 0-45.056-45.056z m-4.096 49.152v114.688h-114.688v-114.688h114.688zM256.55296 743.97696h-122.88a45.056 45.056 0 0 0-45.056 45.056v122.88a45.056 45.056 0 0 0 45.056 45.056h122.88a45.056 45.056 0 0 0 45.056-45.056v-122.88a45.056 45.056 0 0 0-45.056-45.056z m-4.096 49.152v114.688h-114.688v-114.688h114.688zM891.43296 375.33696h-122.88a45.056 45.056 0 0 0-45.056 45.056v122.88a45.056 45.056 0 0 0 45.056 45.056h122.88a45.056 45.056 0 0 0 45.056-45.056v-122.88a45.056 45.056 0 0 0-45.056-45.056z m-4.096 49.152v114.688h-114.688v-114.688h114.688zM891.43296 743.97696h-122.88a45.056 45.056 0 0 0-45.056 45.056v122.88a45.056 45.056 0 0 0 45.056 45.056h122.88a45.056 45.056 0 0 0 45.056-45.056v-122.88a45.056 45.056 0 0 0-45.056-45.056z m-4.096 49.152v114.688h-114.688v-114.688h114.688z" fill="#515151" p-id="6368"></path><path d="M403.84512 238.7968a24.576 24.576 0 0 1 36.5568 32.74752l-1.80224 1.98656-143.36 143.36a24.576 24.576 0 0 1-36.53632-32.768l1.78176-1.98656 143.36-143.36zM573.66528 231.97696a24.576 24.576 0 0 1 32.5632-3.97312l2.12992 1.6384 155.89376 151.7568a24.576 24.576 0 0 1-30.24896 38.64576l-2.10944-1.6384-155.91424-151.7568a24.576 24.576 0 0 1-2.31424-34.67264z" fill="#515151" p-id="6369"></path><path d="M276.80768 825.89696h471.04v49.152h-471.04zM805.53984 570.40896h49.152v184.32h-49.152zM170.65984 570.40896h49.152v184.32h-49.152z" fill="#515151" p-id="6370"></path></svg>