<?xml version="1.0" standalone="no"?><!DOCTYPE svg PUBLIC "-//W3C//DTD SVG 1.1//EN" "http://www.w3.org/Graphics/SVG/1.1/DTD/svg11.dtd"><svg t="1692855774113" class="icon" viewBox="0 0 1024 1024" version="1.1" xmlns="http://www.w3.org/2000/svg" p-id="6090" xmlns:xlink="http://www.w3.org/1999/xlink" width="200" height="200"><path d="M869.838767 128.609252l-715.676511 0c-49.421646 0-89.452401 38.158103-89.452401 85.209769L64.709855 682.41698c0 47.050643 40.030755 85.177023 89.452401 85.177023l44.741038 0 0 127.797769 167.73438-127.797769 503.201093 0c49.389923 0 89.451377-38.12638 89.451377-85.177023L959.290145 213.817997C959.290145 166.767355 919.22869 128.609252 869.838767 128.609252L869.838767 128.609252zM780.386366 597.208234l-536.772733 0 0-42.588 536.772733 0L780.386366 597.208234 780.386366 597.208234zM780.386366 469.412512l-536.772733 0 0-42.589023 536.772733 0L780.386366 469.412512 780.386366 469.412512zM780.386366 341.614743l-536.772733 0 0-42.588 536.772733 0L780.386366 341.614743 780.386366 341.614743zM780.386366 341.614743" p-id="6091"></path></svg>