<?xml version="1.0" standalone="no"?><!DOCTYPE svg PUBLIC "-//W3C//DTD SVG 1.1//EN" "http://www.w3.org/Graphics/SVG/1.1/DTD/svg11.dtd"><svg t="1693333546633" class="icon" viewBox="0 0 1024 1024" version="1.1" xmlns="http://www.w3.org/2000/svg" p-id="3928" xmlns:xlink="http://www.w3.org/1999/xlink" width="200" height="200"><path d="M526.933333 339.2c-21.333333 0-38.4 8.533333-49.066666 23.466667s-19.2 36.266667-19.2 61.866666c0 23.466667 6.4 44.8 17.066666 59.733334s27.733333 23.466667 49.066667 23.466666c21.333333 0 38.4-8.533333 49.066667-21.333333 10.666667-14.933333 17.066667-34.133333 17.066666-59.733333 0-25.6-6.4-46.933333-17.066666-61.866667-10.666667-17.066667-25.6-25.6-46.933334-25.6z" p-id="3929"></path><path d="M832 106.666667H192C145.066667 106.666667 106.666667 145.066667 106.666667 192v469.333333c0 46.933333 38.4 85.333333 85.333333 85.333334h213.333333l-42.666666 106.666666h-74.666667c-17.066667 0-32 14.933333-32 32s14.933333 32 32 32h448c17.066667 0 32-14.933333 32-32s-14.933333-32-32-32H661.333333l-42.666666-106.666666h213.333333c46.933333 0 85.333333-38.4 85.333333-85.333334V192c0-46.933333-38.4-85.333333-85.333333-85.333333zM326.4 390.4l-34.133333 25.6-32-44.8-32 44.8-34.133334-25.6 32-44.8-55.466666-17.066667 12.8-40.533333 53.333333 17.066667v-55.466667h42.666667v55.466667l53.333333-17.066667 12.8 40.533333-53.333333 17.066667 34.133333 44.8z m288 128c-23.466667 23.466667-53.333333 36.266667-89.6 36.266667-36.266667 0-66.133333-12.8-87.466667-36.266667-23.466667-23.466667-34.133333-53.333333-34.133333-91.733333 0-40.533333 10.666667-72.533333 34.133333-96 23.466667-25.6 53.333333-38.4 91.733334-38.4 36.266667 0 66.133333 12.8 87.466666 36.266666 21.333333 23.466667 32 55.466667 32 93.866667 0 38.4-10.666667 70.4-34.133333 96z m211.2 17.066667c-17.066667 12.8-42.666667 19.2-72.533333 19.2s-53.333333-4.266667-70.4-14.933334v-53.333333c21.333333 17.066667 42.666667 25.6 70.4 25.6 14.933333 0 25.6-2.133333 32-8.533333 6.4-4.266667 10.666667-10.666667 10.666666-19.2 0-6.4-2.133333-12.8-8.533333-19.2-6.4-6.4-21.333333-14.933333-46.933333-25.6-38.4-17.066667-59.733333-40.533333-59.733334-72.533334 0-23.466667 8.533333-42.666667 27.733334-55.466666 17.066667-12.8 42.666667-19.2 70.4-19.2 25.6 0 44.8 4.266667 61.866666 10.666666v51.2c-17.066667-10.666667-36.266667-17.066667-59.733333-17.066666-12.8 0-23.466667 2.133333-32 6.4-8.533333 4.266667-12.8 10.666667-12.8 19.2 0 6.4 2.133333 12.8 8.533333 17.066666 6.4 6.4 19.2 12.8 40.533334 21.333334 25.6 10.666667 42.666667 21.333333 51.2 34.133333s14.933333 25.6 14.933333 42.666667c0 25.6-8.533333 44.8-25.6 57.6z" p-id="3930"></path></svg>