<svg width="1024" height="1024" xmlns="http://www.w3.org/2000/svg" p-id="10225" version="1.1" class="icon" t="1693018670347">

 <g>
  <title>Layer 1</title>
  <path id="svg_1" p-id="10226" fill="#e6e6e6" d="m914.21867,109.99467c-21.33334,-21.76 -52.90667,-29.86667 -82.34667,-21.33334l-686.50667,198.4a81.664,81.664 0 0 0 -59.008,64.42667c-6.05866,31.82933 15.104,72.27733 42.752,89.17333l214.656,131.072a55.808,55.808 0 0 0 68.69334,-8.10666l245.76,-245.84534a31.36,31.36 0 0 1 45.22666,0c12.37334,12.37334 12.37334,32.42667 0,45.22667l-246.18666,245.80267a55.89333,55.89333 0 0 0 -8.27734,68.69333l131.15734,215.46667c15.36,25.51466 41.81333,40.10666 70.82666,40.10666c3.41334,0 7.25334,0 10.66667,-0.512c33.28,-4.224 59.73333,-26.88 69.54667,-58.88l203.52,-681.344c8.96,-29.01333 0.85333,-60.58666 -20.48,-82.34666z"/>
  <path id="svg_2" p-id="10227" fill="#e6e6e6" d="m128.42667,717.14133a31.95733,31.95733 0 0 1 -22.61334,-54.61333l58.24,-58.28267a32.08533,32.08533 0 0 1 45.26934,0a32.08533,32.08533 0 0 1 0,45.22667l-58.28267,58.32533a31.744,31.744 0 0 1 -22.61333,9.38667l0,-0.04267zm160.512,50.85867a31.95733,31.95733 0 0 1 -22.61334,-54.61333l58.24,-58.28267a32.08533,32.08533 0 0 1 45.22667,0a32.08533,32.08533 0 0 1 0,45.26933l-58.19733,58.24a31.744,31.744 0 0 1 -22.61334,9.38667l-0.04266,0zm10.79466,152.23467c6.22934,6.272 14.42134,9.38666 22.61334,9.38666a31.744,31.744 0 0 0 22.61333,-9.38666l58.28267,-58.24a32.08533,32.08533 0 0 0 0,-45.22667a32.08533,32.08533 0 0 0 -45.22667,0l-58.28267,58.24a31.95733,31.95733 0 0 0 0,45.22667z"/>
 </g>
</svg>