<?xml version="1.0" standalone="no"?><!DOCTYPE svg PUBLIC "-//W3C//DTD SVG 1.1//EN" "http://www.w3.org/Graphics/SVG/1.1/DTD/svg11.dtd"><svg t="1693333389898" class="icon" viewBox="0 0 1024 1024" version="1.1" xmlns="http://www.w3.org/2000/svg" p-id="6326" xmlns:xlink="http://www.w3.org/1999/xlink" width="200" height="200"><path d="M896 170.666667H128c-47.146667 0-85.333333 38.186667-85.333333 85.333333v512c0 47.146667 38.186667 85.333333 85.333333 85.333333h768c47.146667 0 85.333333-38.186667 85.333333-85.333333V256c0-47.146667-38.186667-85.333333-85.333333-85.333333zM296.106667 511.786667c0 24.96-21.973333 91.52-91.306667 91.52-69.12 0-98.133333-52.053333-98.133333-84.053334v-110.506666h84.48v98.986666c0 16.853333 20.053333 16.64 20.053333 0v-98.986666h84.906667v103.04z m226.56 91.52h-66.133334l-40.106666-59.52v59.52H330.666667v-191.786667h61.44l44.373333 63.786667v-63.786667h86.186667v191.786667z m121.6 0h-84.693334v-194.56h84.693334v194.56z m177.066666 0l-30.72-40.746667-34.133333 40.746667h-87.893333l74.453333-98.133334-74.453333-98.133333h93.653333l27.946667 36.48 27.52-36.48h94.933333l-74.666667 95.786667L917.333333 603.306667h-96z" p-id="6327"></path></svg>